HIERARCHY
ROOT SpineBase
{
  OFFSET 0.000000 0.000000 0.000000
  CHANNELS 6 Xposition Yposition Zposition Zrotation Xrotation Yrotation
  JOINT SpineMid
  {
    OFFSET -0.000000 25.410719 0.000000
    CHANNELS 3 Zrotation Xrotation Yrotation
    JOINT SpineShoulder
    {
      OFFSET 0.213838 19.115956 -0.677464
      CHANNELS 3 Zrotation Xrotation Yrotation
      JOINT Neck
      {
        OFFSET 0.109763 6.429548 -0.504422
        CHANNELS 3 Zrotation Xrotation Yrotation
        JOINT Head
        {
          OFFSET 4.287350 11.704222 -1.408949
          CHANNELS 3 Zrotation Xrotation Yrotation
          End Site
          {
            OFFSET 0 0 0
          }
        }
      }
      JOINT ShoulderLeft
      {
        OFFSET -11.265018 1.591397 -7.853512
        CHANNELS 3 Zrotation Xrotation Yrotation
        JOINT ElbowLeft
        {
          OFFSET -5.244946 -17.805599 -8.518216
          CHANNELS 3 Zrotation Xrotation Yrotation
          JOINT WristLeft
          {
            OFFSET 7.936567 -12.300845 -16.276376
            CHANNELS 3 Zrotation Xrotation Yrotation
            JOINT HandLeft
            {
              OFFSET 3.844193 -0.550494 -5.431401
              CHANNELS 3 Zrotation Xrotation Yrotation
              JOINT HandTipLeft
              {
                OFFSET 1.121385 -0.712865 -4.550508
                CHANNELS 3 Zrotation Xrotation Yrotation
                End Site
                {
                  OFFSET 0 0 0
                }
              }
              JOINT ThumbLeft
              {
                OFFSET 4.137169 0.570378 -3.156916
                CHANNELS 3 Zrotation Xrotation Yrotation
                End Site
                {
                  OFFSET 0 0 0
                }
              }
            }
          }
        }
      }
      JOINT ShoulderRight
      {
        OFFSET 14.886453 -1.286201 9.694151
        CHANNELS 3 Zrotation Xrotation Yrotation
        JOINT ElbowRight
        {
          OFFSET 3.563267 -21.693688 3.416135
          CHANNELS 3 Zrotation Xrotation Yrotation
          JOINT WristRight
          {
            OFFSET 1.305774 0.520568 -21.601638
            CHANNELS 3 Zrotation Xrotation Yrotation
            JOINT HandRight
            {
              OFFSET 1.149191 -10.793993 4.980016
              CHANNELS 3 Zrotation Xrotation Yrotation
              JOINT HandTipRight
              {
                OFFSET 11.016450 0.332483 -0.480928
                CHANNELS 3 Zrotation Xrotation Yrotation
                End Site
                {
                  OFFSET 0 0 0
                }
              }
              JOINT ThumbRight
              {
                OFFSET 9.947387 1.220560 -2.347318
                CHANNELS 3 Zrotation Xrotation Yrotation
                End Site
                {
                  OFFSET 0 0 0
                }
              }
            }
          }
        }
      }
    }
  }
  JOINT HipLeft
  {
    OFFSET -5.897550 2.147907 -5.984279
    CHANNELS 3 Zrotation Xrotation Yrotation
    JOINT KneeLeft
    {
      OFFSET 7.575239 10.012534 -35.873013
      CHANNELS 3 Zrotation Xrotation Yrotation
      JOINT AnkleLeft
      {
        OFFSET -2.567773 -37.182553 -0.106722
        CHANNELS 3 Zrotation Xrotation Yrotation
        JOINT FootLeft
        {
          OFFSET 5.062102 -6.375601 -2.451678
          CHANNELS 3 Zrotation Xrotation Yrotation
          End Site
          {
            OFFSET 0 0 0
          }
        }
      }
    }
  }
  JOINT HipRight
  {
    OFFSET 7.029062 1.114583 -0.011179
    CHANNELS 3 Zrotation Xrotation Yrotation
    JOINT KneeRight
    {
      OFFSET 26.771646 1.589793 -13.071442
      CHANNELS 3 Zrotation Xrotation Yrotation
      JOINT AnkleRight
      {
        OFFSET -5.391345 -28.545689 -9.844574
        CHANNELS 3 Zrotation Xrotation Yrotation
        JOINT FootRight
        {
          OFFSET 5.941262 -1.812830 -11.590890
          CHANNELS 3 Zrotation Xrotation Yrotation
          End Site
          {
            OFFSET 0 0 0
          }
        }
      }
    }
  }
}
MOTION
Frames: 9
Frame Time: 0.033333
-68.194262 31.086353 347.383361 -3.964216 -2.028466 -18.511357 0.525637 -0.088094 18.326394 -0.484630 -0.097212 -0.166467 22.502432 4.429138 0.627071 0.000000 0.000000 0.000000 12.481413 -0.556385 -3.265787 -12.236046 -6.202359 3.345401 2.638582 9.646850 22.163311 11.141147 6.670855 -35.310896 0.000000 0.000000 0.000000 0.000000 0.000000 0.000000 28.426517 27.558638 1.683685 -29.478443 -38.587444 4.045661 -168.532450 63.334174 125.187461 130.228145 -54.031173 -161.254243 0.000000 0.000000 0.000000 0.000000 0.000000 0.000000 1.102920 5.643355 11.632629 2.366557 1.058885 6.664587 -1.044338 40.266239 30.953263 0.000000 0.000000 0.000000 1.378695 1.569840 17.490601 -0.391142 -1.076439 2.190295 1.333905 1.358623 5.096275 0.000000 0.000000 0.000000
-68.238388 31.068654 347.324883 -4.084405 -1.951999 -18.416403 0.530957 -0.089009 18.227032 -0.459130 -0.023473 -0.169383 22.932990 4.043049 0.853532 0.000000 0.000000 0.000000 12.797759 -0.891184 -3.278177 -12.425219 -5.646279 3.640229 1.949563 7.935839 22.751919 7.156596 2.747590 -33.150859 0.000000 0.000000 0.000000 0.000000 0.000000 0.000000 28.414400 27.559224 1.766191 -29.540575 -38.836587 3.677537 -169.246038 62.470858 126.755583 133.509683 -54.756791 -158.799527 0.000000 0.000000 0.000000 0.000000 0.000000 0.000000 1.192993 5.648745 11.317831 2.310338 0.918393 6.893399 -0.959631 40.370824 30.985012 0.000000 0.000000 0.000000 1.564130 1.591739 17.234405 -0.513206 -1.033070 2.353242 1.400711 1.287054 5.114565 0.000000 0.000000 0.000000
-68.264792 31.053381 347.273780 -4.153860 -1.880443 -18.373618 0.523344 -0.064632 18.183079 -0.423104 0.041458 -0.169954 23.188443 3.830335 0.969681 0.000000 0.000000 0.000000 12.767356 -1.469294 -3.054418 -12.368562 -4.861831 3.729308 -0.133969 3.247945 25.824001 11.545518 6.256423 -35.296879 0.000000 0.000000 0.000000 0.000000 0.000000 0.000000 28.342198 27.436823 1.858485 -29.732576 -39.063266 2.576986 -168.204963 60.881727 125.218588 135.291789 -54.125418 -158.768232 0.000000 0.000000 0.000000 0.000000 0.000000 0.000000 1.243505 5.605241 11.109061 2.354713 0.926681 7.061500 -1.036816 40.398699 31.064158 0.000000 0.000000 0.000000 1.671472 1.572643 17.079531 -0.626394 -1.032563 2.489997 1.497671 1.292756 5.145584 0.000000 0.000000 0.000000
-68.273580 31.041294 347.233124 -4.159859 -1.831072 -18.333065 0.508022 -0.027737 18.144424 -0.360048 0.072500 -0.166832 23.077460 3.722568 1.004660 0.000000 0.000000 0.000000 12.778012 -2.000692 -2.912062 -13.242864 -5.725139 4.040928 -1.063953 0.009118 30.380372 20.376371 11.460965 -42.274792 0.000000 0.000000 0.000000 0.000000 0.000000 0.000000 28.150113 27.345681 1.928942 -29.821125 -39.087437 1.568392 -167.568049 59.535820 124.468788 138.233635 -53.903231 -157.223806 0.000000 0.000000 0.000000 0.000000 0.000000 0.000000 1.234739 5.539250 10.932443 2.337360 1.051892 7.191648 -1.035203 40.322372 31.120463 0.000000 0.000000 0.000000 1.679220 1.520578 16.961830 -0.688539 -1.045752 2.597914 1.587912 1.333204 5.148628 0.000000 0.000000 0.000000
-68.261033 31.015819 347.208519 -4.100792 -1.798196 -18.207216 0.460702 0.035079 18.023747 -0.278886 0.085746 -0.161207 22.691056 3.532771 1.063099 0.000000 0.000000 0.000000 12.805274 -2.522025 -2.815432 -13.265710 -4.691577 4.279885 -2.620194 -4.388154 31.141757 25.127593 13.551815 -46.752655 0.000000 0.000000 0.000000 0.000000 0.000000 0.000000 27.932076 27.265082 1.991349 -29.994433 -38.925607 0.127800 -166.002486 58.651382 122.813465 139.885434 -53.694873 -156.535343 0.000000 0.000000 0.000000 0.000000 0.000000 0.000000 1.182223 5.487051 10.736218 2.346459 1.191884 7.255572 -1.048095 40.217208 31.150689 0.000000 0.000000 0.000000 1.644425 1.481289 16.773338 -0.782318 -1.067591 2.693497 1.687540 1.373482 5.127990 0.000000 0.000000 0.000000
-68.272228 31.003204 347.167737 -4.069018 -1.700513 -18.077746 0.459662 0.073279 17.899674 -0.252342 0.103263 -0.158612 22.204502 3.203345 1.183441 0.000000 0.000000 0.000000 10.739444 -4.235555 -1.227803 -9.742470 -0.500607 1.957644 -7.650293 -16.669040 33.299269 28.666944 15.007130 -49.587276 0.000000 0.000000 0.000000 0.000000 0.000000 0.000000 27.685434 27.069171 2.083055 -30.128400 -38.737478 -1.572935 -163.272750 58.196076 119.666727 142.534384 -54.330822 -155.440285 0.000000 0.000000 0.000000 0.000000 0.000000 0.000000 1.174406 5.330396 10.521267 2.375964 1.375602 7.333550 -1.084445 40.137272 31.201966 0.000000 0.000000 0.000000 1.625248 1.362637 16.559319 -0.827713 -1.127523 2.818252 1.782934 1.482604 5.118781 0.000000 0.000000 0.000000
-68.275446 30.975426 347.127774 -4.063060 -1.634355 -17.914093 0.436683 0.077632 17.738061 -0.230343 0.097034 -0.158591 21.921719 2.974346 1.274315 0.000000 0.000000 0.000000 10.908123 -3.748202 -1.504822 -8.209084 1.562821 1.391911 -11.587354 -23.360271 28.872717 31.114225 18.039833 -48.879572 0.000000 0.000000 0.000000 0.000000 0.000000 0.000000 27.280919 26.810999 2.167343 -29.400207 -38.482178 -0.371055 -165.996308 57.977029 123.866324 142.339580 -53.773741 -153.978639 0.000000 0.000000 0.000000 0.000000 0.000000 0.000000 1.203306 5.169006 10.338818 2.454907 1.584736 7.341690 -1.360072 40.096841 31.400945 0.000000 0.000000 0.000000 1.656498 1.311845 16.330858 -0.865538 -1.231707 2.907634 1.805666 1.610532 5.255148 0.000000 0.000000 0.000000
-68.281319 30.938126 347.098580 -4.057710 -1.597728 -17.686523 0.430957 0.082678 17.511892 -0.200416 0.073737 -0.157374 21.421162 2.927526 1.250897 0.000000 0.000000 0.000000 10.742145 -2.853446 -1.770503 -5.857068 3.519207 0.189436 -11.969805 -20.397044 24.264419 19.444741 11.661140 -41.039688 0.000000 0.000000 0.000000 0.000000 0.000000 0.000000 26.978627 26.835308 2.201682 -28.605611 -38.495179 2.245670 -170.761683 59.075244 131.439677 139.812986 -54.314237 -153.669516 0.000000 0.000000 0.000000 0.000000 0.000000 0.000000 1.219641 5.109886 10.068844 2.478211 1.634659 7.382098 -1.501127 40.103046 31.521861 0.000000 0.000000 0.000000 1.683779 1.288783 16.053003 -0.958233 -1.294326 2.991301 1.879190 1.676752 5.316348 0.000000 0.000000 0.000000
-68.290005 30.903381 347.083914 -4.069841 -1.613173 -17.499127 0.459011 0.023583 17.322332 -0.177911 -0.003550 -0.156716 20.960226 3.372791 0.991237 0.000000 0.000000 0.000000 10.264748 -2.071068 -1.797626 -2.765525 6.206304 -1.506171 -11.766776 -17.096133 19.935342 8.141833 1.858045 -33.322350 0.000000 0.000000 0.000000 0.000000 0.000000 0.000000 26.807339 27.253765 2.132372 -28.324275 -38.549317 2.869796 -171.155738 60.473897 131.974509 136.735074 -54.519996 -155.219794 0.000000 0.000000 0.000000 0.000000 0.000000 0.000000 1.228479 5.147243 9.825194 2.444457 1.587816 7.440431 -1.516278 40.107648 31.560116 0.000000 0.000000 0.000000 1.698572 1.307023 15.844176 -0.991478 -1.325825 3.026104 1.897750 1.685668 5.331534 0.000000 0.000000 0.000000
